<svg xmlns="http://www.w3.org/2000/svg" version="1.1" xmlns:xlink="http://www.w3.org/1999/xlink" width="512" height="512" x="0" y="0" viewBox="0 0 128 128" style="enable-background:new 0 0 512 512" xml:space="preserve" class=""><g transform="matrix(0.9899999999999984,0,0,0.9899999999999984,0.6466699600220522,0.6486140680314634)"><ellipse cx="64.334" cy="114.362" fill="#b8cbcd" rx="47.667" ry="10.186" opacity="1" data-original="#b8cbcd" class=""></ellipse><path fill="#b2eda6" d="M46.667 96.175a10.96 10.96 0 0 1-3-.425v15.425a7 7 0 1 0 14 0v-15z" opacity="1" data-original="#b2eda6" class=""></path><path fill="#3c663e" d="M50.667 120.175c-4.962 0-9-4.037-9-9V95.75a2.001 2.001 0 0 1 2.545-1.924 9.031 9.031 0 0 0 2.455.349h11a2 2 0 0 1 2 2v15c0 4.963-4.038 9-9 9zm-5-22.04v13.04c0 2.757 2.243 5 5 5s5-2.243 5-5v-13h-9c-.333 0-.666-.014-1-.04z" opacity="1" data-original="#3c663e" class=""></path><path fill="#b2eda6" d="M82.667 96.175c1.041 0 2.045-.154 3-.425v15.425a7 7 0 1 1-14 0v-15z" opacity="1" data-original="#b2eda6" class=""></path><path fill="#3c663e" d="M78.667 120.175c-4.962 0-9-4.037-9-9v-15a2 2 0 0 1 2-2h11c.812 0 1.637-.117 2.455-.349a1.998 1.998 0 0 1 2.546 1.924v15.425c-.001 4.963-4.039 9-9.001 9zm-5-22v13c0 2.757 2.243 5 5 5s5-2.243 5-5v-13.04c-.334.026-.668.04-1 .04z" opacity="1" data-original="#3c663e" class=""></path><path fill="#b2eda6" d="M95.667 49.175v46c0 4.418-13.103 8-30.5 8s-31.5-3.582-31.5-8v-46" opacity="1" data-original="#b2eda6" class=""></path><g fill="#3c663e"><path d="M65.167 105.175c-11.587 0-33.5-2.09-33.5-10v-46a2 2 0 0 1 4 0v46c0 1.794 10.037 6 29.5 6 19.736 0 28.5-4.348 28.5-6v-46a2 2 0 0 1 4 0v46c0 6.908-16.324 10-32.5 10zM81.167 24.675a2.998 2.998 0 0 1-2.121-5.121l13.5-13.5a2.998 2.998 0 0 1 4.242 0 2.998 2.998 0 0 1 0 4.242l-13.5 13.5a2.991 2.991 0 0 1-2.121.879zM49.667 24.675a2.988 2.988 0 0 1-2.121-.879l-13.5-13.5a2.998 2.998 0 0 1 0-4.242 2.998 2.998 0 0 1 4.242 0l13.5 13.5a2.998 2.998 0 0 1-2.121 5.121z" fill="#3c663e" opacity="1" data-original="#3c663e" class=""></path></g><path fill="#b2eda6" d="M109.667 82.675a7 7 0 1 1-14 0v-28a7 7 0 1 1 14 0z" opacity="1" data-original="#b2eda6" class=""></path><path fill="#3c663e" d="M102.667 91.675c-4.962 0-9-4.037-9-9v-28c0-4.963 4.038-9 9-9s9 4.037 9 9v28c0 4.963-4.038 9-9 9zm0-42c-2.757 0-5 2.243-5 5v28c0 2.757 2.243 5 5 5s5-2.243 5-5v-28c0-2.757-2.243-5-5-5z" opacity="1" data-original="#3c663e" class=""></path><path fill="#b2eda6" d="M33.667 82.675a7 7 0 1 1-14 0v-28a7 7 0 1 1 14 0z" opacity="1" data-original="#b2eda6" class=""></path><path fill="#3c663e" d="M26.667 91.675c-4.962 0-9-4.037-9-9v-28c0-4.963 4.038-9 9-9s9 4.037 9 9v28c0 4.963-4.038 9-9 9zm0-42c-2.757 0-5 2.243-5 5v28c0 2.757 2.243 5 5 5s5-2.243 5-5v-28c0-2.757-2.243-5-5-5z" opacity="1" data-original="#3c663e" class=""></path><path fill="#3c663e20" d="M90.667 101.175a3 3 0 0 1-3-3v-44a3 3 0 1 1 6 0v44a3 3 0 0 1-3 3z" opacity="1" data-original="#3c663e20" class=""></path><path fill="#ffffff" d="M38.667 101.175a3 3 0 0 1-3-3v-44a3 3 0 1 1 6 0v44a3 3 0 0 1-3 3zM47.667 102.216a2 2 0 0 1-2-2V54.175a2 2 0 0 1 4 0v46.041a2 2 0 0 1-2 2z" opacity="1" data-original="#ffffff" class=""></path><path fill="#b2eda6" d="M64.667 18.175c-17.121 0-31 13.879-31 31 0 4.418 14.103 8 31.5 8s30.5-3.582 30.5-8c0-17.121-13.88-31-31-31z" opacity="1" data-original="#b2eda6" class=""></path><path fill="#3c663e" d="M65.167 59.175c-11.587 0-33.5-2.09-33.5-10 0-18.196 14.804-33 33-33s33 14.804 33 33c0 6.908-16.324 10-32.5 10zm-.5-39c-15.991 0-29 13.01-29 29 0 1.794 10.037 6 29.5 6 19.736 0 28.5-4.348 28.5-6 0-15.99-13.01-29-29-29z" opacity="1" data-original="#3c663e" class=""></path><circle cx="51.667" cy="40.175" r="4" fill="#ffffff" opacity="1" data-original="#ffffff" class=""></circle><path fill="#3c663e" d="M51.667 46.175c-3.309 0-6-2.691-6-6s2.691-6 6-6 6 2.691 6 6c0 3.308-2.692 6-6 6zm0-8c-1.103 0-2 .897-2 2 0 1.102.897 2 2 2s2-.898 2-2c0-1.103-.897-2-2-2z" opacity="1" data-original="#3c663e" class=""></path><circle cx="77.667" cy="40.175" r="4" fill="#ffffff" opacity="1" data-original="#ffffff" class=""></circle><path fill="#3c663e" d="M77.667 46.175c-3.309 0-6-2.691-6-6s2.691-6 6-6 6 2.691 6 6c0 3.308-2.692 6-6 6zm0-8c-1.103 0-2 .897-2 2 0 1.102.897 2 2 2s2-.898 2-2c0-1.103-.897-2-2-2z" opacity="1" data-original="#3c663e" class=""></path><path fill="#3c663e" d="M78.667 121.175c-5.514 0-10-4.486-10-10v-4.049c-2.647.073-5.341.063-8-.031v4.08c0 5.514-4.486 10-10 10s-10-4.486-10-10v-6.827c-7.49-2.068-11-4.69-11-8.173V92.19a9.231 9.231 0 0 1-3 .484c-5.514 0-10-4.486-10-10v-28c0-5.514 4.486-10 10-10a9.94 9.94 0 0 1 4.187.919c1.795-17.07 16.275-30.419 33.813-30.419s32.017 13.349 33.813 30.42a9.94 9.94 0 0 1 4.187-.919c5.514 0 10 4.486 10 10v28c0 5.514-4.486 10-10 10a9.231 9.231 0 0 1-3-.484v3.984c0 3.521-3.604 6.247-11 8.302v6.698c0 5.513-4.486 10-10 10zm-7-20.174a3 3 0 0 1 3 3v7.174c0 2.206 1.794 4 4 4s4-1.794 4-4v-9.026c0-1.392.956-2.601 2.311-2.92 5.796-1.368 8.114-2.81 8.689-3.404v-13.15c0-1.657.499-3 2.156-3s1.906 1.343 1.906 3c0 .938.938 4 4.938 4 2.206 0 4-1.794 4-4v-28c0-2.206-1.794-4-4-4s-5 1.794-5 4c0 1.657-.343 3-2 3s-2-2.78-2-4.438l-1-4.063c0-15.44-12.561-28-28-28s-28 13.705-28 29.144l-1.063 4.356c0 1.657-.281 3-1.938 3s-2.156-1.999-2.156-3.656c0-2.206-2.638-3.344-4.844-3.344s-4 1.794-4 4v28c0 2.206 1.794 4 4 4 4.5 0 5.125-2.874 5.125-3.813 0-1.657-.279-3.143 1.377-3.143 1.657 0 2.498 1.298 2.498 2.955v13.09c.622.589 2.973 1.978 8.693 3.335a3 3 0 0 1 2.307 2.919v9.156c0 2.206 1.794 4 4 4s4-1.794 4-4v-7.23c0-.828.342-1.619.945-2.187a3.004 3.004 0 0 1 2.241-.808c4.49.28 9.212.298 13.651.056l.164-.003z" opacity="1" data-original="#3c663e" class=""></path><path fill="#3c663e" d="M65.167 105.175c-11.587 0-33.5-2.09-33.5-10v-46a2 2 0 0 1 4 0v46c0 1.794 10.037 6 29.5 6 19.736 0 28.5-4.348 28.5-6v-46a2 2 0 0 1 4 0v46c0 6.908-16.324 10-32.5 10z" opacity="1" data-original="#3c663e" class=""></path></g></svg>